<svg width="30" height="31" viewBox="0 0 30 31" fill="none" xmlns="http://www.w3.org/2000/svg">
<path d="M26.7857 0.345703H3.21429C2.3618 0.345703 1.54424 0.68435 0.941442 1.28715C0.338647 1.88994 0 2.70751 0 3.55999L0 27.1314C0 27.9839 0.338647 28.8015 0.941442 29.4043C1.54424 30.0071 2.3618 30.3457 3.21429 30.3457H12.4051V20.1464H8.18638V15.3457H12.4051V11.6868C12.4051 7.52494 14.8828 5.22606 18.6777 5.22606C20.4951 5.22606 22.3955 5.55017 22.3955 5.55017V9.63499H20.3016C18.2384 9.63499 17.5949 10.9153 17.5949 12.2285V15.3457H22.2007L21.4641 20.1464H17.5949V30.3457H26.7857C27.6382 30.3457 28.4558 30.0071 29.0586 29.4043C29.6614 28.8015 30 27.9839 30 27.1314V3.55999C30 2.70751 29.6614 1.88994 29.0586 1.28715C28.4558 0.68435 27.6382 0.345703 26.7857 0.345703Z" fill="#EAF0FB"/>
</svg>
