<svg width="30" height="30" viewBox="0 0 30 30" fill="none" xmlns="http://www.w3.org/2000/svg">
<path d="M26.8936 2.45566C26.1435 1.32739 25.2506 0 23.5722 0C21.8936 0 21.0363 1.32733 20.2508 2.45566C19.4651 3.58394 19.0007 4.31409 17.8579 4.31409C16.7149 4.31409 16.1437 3.51777 15.465 2.45566C14.7863 1.3936 13.822 0 12.1436 0C10.465 0 9.60771 1.32733 8.82223 2.45566C8.03649 3.58394 7.57207 4.31409 6.42931 4.31409C5.28629 4.31409 4.71504 3.51777 4.03639 2.45566C3.35774 1.3936 2.39336 0 0.715005 0H0V2.65466H0.71424C1.89284 2.65466 2.42851 3.45099 3.10716 4.51309C3.78581 5.57516 4.75018 6.96875 6.42854 6.96875C8.10716 6.96875 8.96445 5.64142 9.74993 4.51309C10.5357 3.38482 11.0001 2.65466 12.1428 2.65466C13.2859 2.65466 13.8571 3.45099 14.5358 4.51309C15.2144 5.57516 16.1788 6.96875 17.8571 6.96875C19.5358 6.96875 20.3931 5.64142 21.1785 4.51309C21.9643 3.38482 22.4287 2.65466 23.5715 2.65466C24.7145 2.65466 25.2857 3.45099 25.9644 4.51309C26.643 5.57516 27.6074 6.96875 29.2858 6.96875H30V4.31409H29.2865C28.1079 4.31409 27.5722 3.51777 26.8935 2.45566H26.8936Z" fill="#EAF0FB"/>
<path d="M26.8936 13.9386C26.1435 12.8103 25.2506 11.4829 23.5722 11.4829C21.8936 11.4829 21.0363 12.8102 20.2508 13.9386C19.4651 15.0668 19.0007 15.797 17.8579 15.797C16.7149 15.797 16.1437 15.0007 15.465 13.9386C14.7863 12.8765 13.822 11.4829 12.1436 11.4829C10.465 11.4829 9.60771 12.8102 8.82223 13.9386C8.03649 15.0668 7.57207 15.797 6.42931 15.797C5.28629 15.797 4.71504 15.0007 4.03639 13.9386C3.35774 12.8765 2.39336 11.4829 0.715005 11.4829H0V14.1376H0.71424C1.89284 14.1376 2.42851 14.9339 3.10716 15.996C3.78581 17.0581 4.75018 18.4517 6.42854 18.4517C8.10716 18.4517 8.96445 17.1243 9.74993 15.996C10.5357 14.8677 11.0001 14.1376 12.1428 14.1376C13.2859 14.1376 13.8571 14.9339 14.5358 15.996C15.2144 17.0581 16.1788 18.4517 17.8571 18.4517C19.5358 18.4517 20.3931 17.1243 21.1785 15.996C21.9643 14.8677 22.4287 14.1376 23.5715 14.1376C24.7145 14.1376 25.2857 14.9339 25.9644 15.996C26.643 17.0581 27.6074 18.4517 29.2858 18.4517H30V15.797H29.2865C28.1079 15.797 27.5722 15.0007 26.8935 13.9386H26.8936Z" fill="#EAF0FB"/>
<path d="M26.8936 25.4869C26.1435 24.3586 25.2506 23.0312 23.5722 23.0312C21.8936 23.0312 21.0363 24.3586 20.2508 25.4869C19.4651 26.6152 19.0007 27.3453 17.8579 27.3453C16.7149 27.3453 16.1437 26.549 15.465 25.4869C14.7863 24.4248 13.822 23.0312 12.1436 23.0312C10.465 23.0312 9.60771 24.3586 8.82223 25.4869C8.03649 26.6152 7.57207 27.3453 6.42931 27.3453C5.28629 27.3453 4.71504 26.549 4.03639 25.4869C3.35774 24.4248 2.39336 23.0312 0.715005 23.0312H0V25.6859H0.71424C1.89284 25.6859 2.42851 26.4822 3.10716 27.5443C3.78581 28.6064 4.75018 30 6.42854 30C8.10716 30 8.96445 28.6727 9.74993 27.5443C10.5357 26.4161 11.0001 25.6859 12.1428 25.6859C13.2859 25.6859 13.8571 26.4822 14.5358 27.5443C15.2144 28.6064 16.1788 30 17.8571 30C19.5358 30 20.3931 28.6727 21.1785 27.5443C21.9643 26.4161 22.4287 25.6859 23.5715 25.6859C24.7145 25.6859 25.2857 26.4822 25.9644 27.5443C26.643 28.6064 27.6074 30 29.2858 30H30V27.3453H29.2865C28.1079 27.3453 27.5722 26.4824 26.8935 25.4869H26.8936Z" fill="#EAF0FB"/>
</svg>
