<svg width="30" height="31" viewBox="0 0 30 31" fill="none" xmlns="http://www.w3.org/2000/svg">
<path d="M15.0033 7.65408C10.7468 7.65408 7.31344 11.0882 7.31344 15.3457C7.31344 19.6032 10.7468 23.0373 15.0033 23.0373C19.2599 23.0373 22.6933 19.6032 22.6933 15.3457C22.6933 11.0882 19.2599 7.65408 15.0033 7.65408ZM15.0033 20.3463C12.2526 20.3463 10.0039 18.1037 10.0039 15.3457C10.0039 12.5877 12.246 10.3451 15.0033 10.3451C17.7607 10.3451 20.0028 12.5877 20.0028 15.3457C20.0028 18.1037 17.754 20.3463 15.0033 20.3463ZM24.8014 7.33946C24.8014 8.33689 23.9983 9.1335 23.0078 9.1335C22.0106 9.1335 21.2142 8.3302 21.2142 7.33946C21.2142 6.34872 22.0173 5.54541 23.0078 5.54541C23.9983 5.54541 24.8014 6.34872 24.8014 7.33946ZM29.8946 9.16027C29.7808 6.75706 29.232 4.62831 27.4718 2.87443C25.7183 1.12056 23.5901 0.571632 21.1874 0.451137C18.7111 0.310559 11.2889 0.310559 8.8126 0.451137C6.41662 0.564938 4.28834 1.11386 2.52817 2.86774C0.767987 4.62162 0.225878 6.75037 0.10541 9.15358C-0.0351366 11.6304 -0.0351366 19.0543 0.10541 21.5311C0.219186 23.9343 0.767987 26.0631 2.52817 27.817C4.28834 29.5709 6.40993 30.1198 8.8126 30.2403C11.2889 30.3808 18.7111 30.3808 21.1874 30.2403C23.5901 30.1265 25.7183 29.5775 27.4718 27.817C29.2253 26.0631 29.7741 23.9343 29.8946 21.5311C30.0351 19.0543 30.0351 11.6371 29.8946 9.16027ZM26.6955 24.1887C26.1735 25.5008 25.1629 26.5116 23.8444 27.0404C21.8701 27.8237 17.1852 27.6429 15.0033 27.6429C12.8215 27.6429 8.12995 27.817 6.1623 27.0404C4.85053 26.5183 3.83993 25.5075 3.31121 24.1887C2.52817 22.2139 2.70887 17.528 2.70887 15.3457C2.70887 13.1634 2.53486 8.47077 3.31121 6.50268C3.83324 5.19062 4.84384 4.1798 6.1623 3.65096C8.13664 2.86774 12.8215 3.04848 15.0033 3.04848C17.1852 3.04848 21.8767 2.87443 23.8444 3.65096C25.1562 4.1731 26.1668 5.18393 26.6955 6.50268C27.4785 8.47747 27.2978 13.1634 27.2978 15.3457C27.2978 17.528 27.4785 22.2206 26.6955 24.1887Z" fill="#EAF0FB"/>
</svg>
