<svg width="95" height="56" viewBox="0 0 95 56" fill="none" xmlns="http://www.w3.org/2000/svg">
<path d="M88.0515 25.3588C89.7632 24.0677 88.4056 20.8564 86.266 21.5848C83.5213 22.8428 85.6019 27.1962 88.0515 25.3588ZM81.3816 15.4271C99.5615 15.245 99.5172 45.0237 81.3816 44.7257V15.4271Z" fill="#233968"/>
<path d="M80.4226 15.3945V45.0242H39.2522L23.6104 36.2512V22.5123L39.2522 15.3945H80.4226ZM62.5673 43.0378V17.0498H48.8438V43.0378H62.5673Z" fill="#233968"/>
<path d="M79.242 14.401H48.2535C48.2093 14.2851 48.1502 14.1858 48.106 14.0699C56.281 13.4078 63.8068 7.58122 65.9612 0C67.2598 1.34078 68.0714 6.40596 69.3552 8.27644C70.8899 10.5111 73.7674 12.1333 76.2907 13.2423L79.242 14.401Z" fill="#233968"/>
<path d="M70.2405 46.0171L64.9282 49.8243C57.7123 54.7901 55.0562 56.2799 43.679 55.9488C48.1354 51.9596 54.1117 55.7502 54.3036 46.0171H70.2405Z" fill="#233968"/>
<path d="M23.3005 22.4785H18.1062V36.2671H23.3005V22.4785Z" fill="#233968"/>
<path d="M0 13.5732C7.02406 14.7816 19.8621 22.1311 15.6418 33.7678C13.1037 40.7365 6.97979 43.8485 0.885385 46.8445H0.737821L3.83667 41.8787C6.27148 36.648 4.98767 32.5428 10.6246 30.4572L10.7722 30.1261C9.20801 28.8515 6.97979 27.0969 6.1977 24.9947C5.38609 22.8263 5.47463 20.4758 4.42693 18.7046L0 13.5732Z" fill="#233968"/>
</svg>
