<svg width="30" height="31" viewBox="0 0 30 31" fill="none" xmlns="http://www.w3.org/2000/svg">
<path d="M22.5 20.2289C21.55 20.2289 20.7 20.6039 20.05 21.1914L11.1375 16.0039C11.2 15.7164 11.25 15.4289 11.25 15.1289C11.25 14.8289 11.2 14.5414 11.1375 14.2539L19.95 9.11641C20.625 9.74141 21.5125 10.1289 22.5 10.1289C24.575 10.1289 26.25 8.45391 26.25 6.37891C26.25 4.30391 24.575 2.62891 22.5 2.62891C20.425 2.62891 18.75 4.30391 18.75 6.37891C18.75 6.67891 18.8 6.96641 18.8625 7.25391L10.05 12.3914C9.375 11.7664 8.4875 11.3789 7.5 11.3789C5.425 11.3789 3.75 13.0539 3.75 15.1289C3.75 17.2039 5.425 18.8789 7.5 18.8789C8.4875 18.8789 9.375 18.4914 10.05 17.8664L18.95 23.0664C18.8875 23.3289 18.85 23.6039 18.85 23.8789C18.85 25.8914 20.4875 27.5289 22.5 27.5289C24.5125 27.5289 26.15 25.8914 26.15 23.8789C26.15 21.8664 24.5125 20.2289 22.5 20.2289Z" fill="#EAF0FB"/>
</svg>
