<svg width="30" height="30" viewBox="0 0 30 30" fill="none" xmlns="http://www.w3.org/2000/svg">
<path d="M28.8462 7.92418C27.01 7.92418 25.2491 7.20858 23.9508 5.9348C22.6525 4.66103 21.9231 2.93342 21.9231 1.13203C21.9231 0.831793 21.8015 0.543858 21.5851 0.331562C21.3687 0.119267 21.0752 0 20.7692 0H15C14.694 0 14.4005 0.119267 14.1841 0.331562C13.9677 0.543858 13.8462 0.831793 13.8462 1.13203V19.2444C13.845 19.7504 13.7056 20.2469 13.4425 20.6821C13.1794 21.1173 12.8021 21.4753 12.3501 21.7189C11.898 21.9625 11.3876 22.0827 10.8721 22.067C10.3566 22.0513 9.85476 21.9003 9.41894 21.6297C8.98312 21.3591 8.62922 20.9788 8.3941 20.5284C8.15898 20.078 8.05124 19.5741 8.0821 19.0689C8.11296 18.5638 8.28129 18.0761 8.56956 17.6565C8.85784 17.2369 9.25551 16.9008 9.72115 16.6832C9.91967 16.5937 10.0878 16.45 10.2054 16.2694C10.323 16.0888 10.3852 15.8788 10.3846 15.6644V9.77787C10.3875 9.61006 10.3513 9.44382 10.2788 9.29179C10.2063 9.13977 10.0995 9.00596 9.96635 8.90055C9.8372 8.79616 9.68647 8.72057 9.52458 8.67904C9.3627 8.6375 9.19354 8.631 9.02885 8.65999C6.97614 9.02072 5.0709 9.94844 3.53677 11.3343C2.00263 12.7201 0.903255 14.5065 0.367676 16.4838C-0.167904 18.4611 -0.117461 20.5473 0.513083 22.4975C1.14363 24.4476 2.32811 26.1809 3.9275 27.4938C5.52689 28.8066 7.47481 29.6447 9.54265 29.9095C11.6105 30.1743 13.7124 29.855 15.6017 28.9889C17.491 28.1228 19.0893 26.746 20.209 25.02C21.3287 23.2939 21.9233 21.2904 21.9231 19.2444V14.1928C24.0601 15.2864 26.4359 15.8546 28.8462 15.8484C29.1522 15.8484 29.4457 15.7291 29.662 15.5168C29.8784 15.3045 30 15.0166 30 14.7163V9.0562C30 8.75597 29.8784 8.46803 29.662 8.25574C29.4457 8.04344 29.1522 7.92418 28.8462 7.92418ZM27.6923 13.5277C25.44 13.3316 23.2829 12.5447 21.4471 11.2495C21.2734 11.1319 21.0705 11.0626 20.86 11.049C20.6494 11.0355 20.439 11.0781 20.2511 11.1724C20.0633 11.2668 19.905 11.4093 19.793 11.5848C19.6811 11.7603 19.6197 11.9623 19.6154 12.1693V19.2444C19.6146 20.8008 19.1777 22.3269 18.3526 23.6562C17.5274 24.9854 16.3458 26.0665 14.9367 26.7814C13.5276 27.4963 11.9454 27.8175 10.3628 27.7098C8.78031 27.6022 7.25838 27.0698 5.96339 26.1709C4.66839 25.272 3.65015 24.0412 3.01993 22.613C2.38971 21.1847 2.17176 19.614 2.38991 18.0724C2.60805 16.5309 3.2539 15.0778 4.25686 13.872C5.25982 12.6663 6.58131 11.7541 8.07692 11.2354V15.0135C7.33088 15.5025 6.72674 16.1729 6.32341 16.9592C5.92008 17.7455 5.73132 18.621 5.77554 19.5002C5.81976 20.3794 6.09545 21.2324 6.57573 21.9759C7.05601 22.7195 7.72449 23.3282 8.51598 23.7428C9.30747 24.1574 10.195 24.3637 11.0919 24.3416C11.9889 24.3195 12.8647 24.0698 13.634 23.6167C14.4033 23.1636 15.0397 22.5227 15.4814 21.7564C15.923 20.9902 16.1547 20.1247 16.1538 19.2444V2.26405H19.6875C19.946 4.25831 20.8726 6.1118 22.3215 7.53332C23.7704 8.95484 25.6596 9.86382 27.6923 10.1175V13.5277Z" fill="#EAF0FB"/>
</svg>
