<svg width="150" height="150" viewBox="0 0 150 150" fill="none" xmlns="http://www.w3.org/2000/svg">
<path d="M128.994 114.369L107.026 131.477C93.1362 142.275 77.0258 146.89 61.6974 144.378C60.8002 144.22 59.8781 144.064 59.0755 143.907C57.776 143.53 27.0212 134.521 1.25025 145.414C0.329159 145.822 -0.190657 147.141 0.0931934 148.365C0.329177 149.369 1.0382 149.998 1.77007 149.998C1.95929 149.998 2.12458 149.966 2.3138 149.872C27.1638 139.356 57.9898 148.365 58.4158 148.491C59.3847 148.679 60.3287 148.868 61.2738 149.024C77.3836 151.63 94.2969 146.827 108.824 135.495L130.792 118.387C131.642 117.728 131.926 116.284 131.429 115.154C130.909 114.088 129.823 113.71 128.996 114.369L128.994 114.369Z" fill="#FFEBD1"/>
<path d="M147.917 85.8706C144.491 79.3733 137.996 77.3644 132.799 81.256L101.335 104.642C101.5 103.637 101.594 102.601 101.594 101.535C101.594 93.3103 96.5628 86.6233 90.3738 86.6233H72.9644C69.6334 86.6233 66.2089 85.2114 63.0672 82.5422C58.626 78.7442 52.2252 76.5781 45.5404 76.5781C37.1548 76.5781 29.5959 79.8427 25.2969 85.3358C22.2738 89.2278 18.0456 91.3621 13.4151 91.3621L1.7715 91.3635C0.802554 91.3635 0 92.4315 0 93.7177C0 95.0054 0.803639 96.1037 1.7715 96.1037H13.4401C18.9907 96.1037 24.0703 93.498 27.7785 88.7581C31.3693 84.1754 38.1715 81.3186 45.5654 81.3186C51.589 81.3186 57.2819 83.2334 61.1794 86.5298C64.8876 89.7005 68.9745 91.3637 72.9666 91.3637H90.376C94.6043 91.3637 98.0524 95.9464 98.0524 101.565C98.0524 107.184 94.604 111.766 90.376 111.766H70.4394C69.4704 111.766 68.6679 112.834 68.6679 114.12C68.6679 115.408 69.4715 116.475 70.4394 116.475H90.376C93.1872 116.475 95.7145 115.063 97.6752 112.802L134.523 85.398C138.137 82.6985 142.649 84.0801 145.011 88.6005C146.311 91.0486 146.759 94.0315 146.263 96.9823C145.767 99.9333 144.443 102.382 142.484 103.889L135.469 109.35C134.618 110.009 134.334 111.453 134.831 112.583C135.162 113.336 135.752 113.745 136.367 113.745C136.674 113.745 136.981 113.651 137.264 113.431L144.279 107.97C147.043 105.804 149.027 102.194 149.736 98.0187C150.42 93.7815 149.759 89.3867 147.916 85.8706L147.917 85.8706Z" fill="#FFEBD1"/>
<path d="M82.782 54.6609C91.5272 54.6609 99.6511 49.3384 106.927 38.8391C108.182 37.029 109.312 35.0708 110.402 33.1771C110.891 32.328 111.381 31.4789 111.88 30.6442C112.195 30.1203 112.367 29.4514 112.367 28.7585V27.9625C112.367 27.2172 112.167 26.4992 111.808 25.9632C111.004 24.7583 110.2 23.4674 109.422 22.219C107.646 19.3682 105.809 16.4185 103.658 13.9507C97.3926 6.77305 90.2244 3.13352 82.351 3.13352C78.7038 3.13352 74.8326 3.91825 70.8445 5.46509C65.4941 7.53994 60.056 11.0435 54.2314 16.1729C50.5523 8.29261 45.9778 3.04245 40.2977 0.163627C39.6866 -0.147044 39.0084 -0.0102205 38.4766 0.53063C37.9471 1.07149 37.632 1.94878 37.632 2.88487V3.28327C37.632 3.82172 37.737 4.35051 37.9348 4.80765C41.8608 13.8951 42.8434 22.6633 40.9362 31.6138C40.3139 34.5338 39.7195 37.5076 39.1469 40.3841C38.9034 41.6051 38.6609 42.8245 38.4151 44.043C38.3341 44.4414 38.2587 44.8423 38.171 45.3131L38.0068 46.1824C37.8152 47.1852 38.0129 48.258 38.5241 48.9922C39.0352 49.7262 39.7798 50.0063 40.4764 49.7262C46.2274 47.4082 50.6087 43.0339 53.8056 36.4002C53.8833 36.4968 53.9593 36.5942 54.0369 36.6899C60.5935 44.8882 66.6198 49.937 73.0025 52.5826C76.3313 53.9621 79.621 54.6616 82.7811 54.6616L82.782 54.6609ZM107.928 28.4379C107.725 28.7888 107.523 29.1397 107.321 29.4899C106.24 31.366 105.219 33.1374 104.094 34.7608C97.504 44.2687 90.5319 48.8892 82.7818 48.8892C79.9964 48.8892 77.0788 48.2646 74.1087 47.0348C68.3057 44.6299 62.7614 39.9585 56.6618 32.3302L54.6765 29.8286C54.224 29.2572 53.6151 29.0117 53.023 29.1558C52.4298 29.3014 51.913 29.8238 51.6159 30.5787C49.4802 36.0131 46.6721 39.829 42.9265 42.3176C42.9488 42.2033 42.9723 42.0882 42.9946 41.9739C43.5633 39.1231 44.151 36.1748 44.7626 33.3049C46.4949 25.1734 46.2475 17.2295 43.9945 9.21235C47.0496 12.1548 49.6533 16.2507 51.8755 21.5862C52.1487 22.243 52.5933 22.7154 53.1078 22.9013C53.6245 23.0873 54.1697 22.9697 54.6255 22.5721L55.0557 22.1995C55.3987 21.9033 55.7076 21.6353 56.0159 21.3616C61.6272 16.3773 66.8174 12.9984 71.884 11.0346C75.5339 9.61887 79.0545 8.90103 82.3504 8.90103C89.394 8.90103 95.5472 12.0288 101.164 18.4651C103.052 20.631 104.698 23.2733 106.441 26.071C106.926 26.8517 107.423 27.6484 107.928 28.4388L107.928 28.4379ZM100.274 30.4211C102.26 30.4211 104.011 27.8591 104.023 24.9416C104.03 23.5065 103.639 22.1415 102.922 21.1008C102.2 20.0545 101.203 19.4532 100.187 19.4532H100.145C99.1006 19.4717 98.1006 20.1019 97.4006 21.1828C96.7001 22.2662 96.3465 23.6852 96.4068 25.179C96.5236 28.083 97.9234 30.1337 99.9736 30.4026C100.075 30.4139 100.174 30.4211 100.274 30.4211L100.274 30.4211ZM100.185 24.6616V25.2234C100.166 25.2234 100.115 25.2177 100.079 25.167C100.041 25.1131 100.017 25.0101 100.018 24.9055C100.018 24.7992 100.036 24.7316 100.042 24.7147C100.047 24.7139 100.099 24.6777 100.185 24.6616V24.6616ZM100.409 24.9481C100.4 24.9481 100.376 25.0431 100.328 25.1163C100.275 25.1984 100.216 25.2209 100.188 25.2209L100.188 24.6592C100.204 24.6559 100.224 24.6535 100.243 24.6519C100.313 24.7203 100.394 24.8563 100.412 24.9529C100.412 24.9497 100.411 24.9481 100.409 24.9481V24.9481Z" fill="#FFEBD1"/>
</svg>
