<svg width="35" height="66" viewBox="0 0 35 66" fill="none" xmlns="http://www.w3.org/2000/svg">
<path d="M29.1927 65.9997C28.4456 66.0021 27.7074 65.8466 27.0324 65.5448C26.3574 65.243 25.7627 64.8025 25.292 64.2556L1.13765 35.9725C0.402104 35.129 0 34.0711 0 32.9792C0 31.8874 0.402104 30.8294 1.13765 29.9859L26.1421 1.70289C26.991 0.740241 28.2108 0.134869 29.5331 0.0199466C30.8555 -0.0949755 32.1721 0.289966 33.1934 1.09009C34.2147 1.89021 34.8569 3.03997 34.9788 4.28643C35.1008 5.53289 34.6924 6.77396 33.8435 7.7366L11.4895 33.0028L33.0934 58.269C33.7049 58.9609 34.0934 59.8035 34.2128 60.697C34.3322 61.5905 34.1776 62.4975 33.7672 63.3108C33.3569 64.1241 32.708 64.8095 31.8973 65.286C31.0866 65.7625 30.148 66.0102 29.1927 65.9997Z" fill="#EAF0FB"/>
</svg>
