<svg width="150" height="150" viewBox="0 0 150 150" fill="none" xmlns="http://www.w3.org/2000/svg">
<path fill-rule="evenodd" clip-rule="evenodd" d="M0.506967 7.60477C0.842026 7.23789 1.23469 7.05509 1.68495 7.05509H27.3863C27.8942 7.05509 28.315 7.23789 28.6501 7.60477C28.9299 7.97166 29.071 8.3999 29.071 8.88823C29.071 9.37528 28.9299 9.8048 28.6501 10.1717C28.315 10.5386 27.893 10.7214 27.3863 10.7214L3.37063 10.7201V26.2057H145.785V10.7201H123.201C122.753 10.7201 122.358 10.5373 122.023 10.1704C121.685 9.80352 121.515 9.37528 121.515 8.88695C121.515 8.3999 121.683 7.97038 122.023 7.60349C122.358 7.23661 122.754 7.05381 123.201 7.05381L147.471 7.05509C147.919 7.05509 148.314 7.23789 148.649 7.60477C148.987 7.97166 149.157 8.3999 149.157 8.88823V28.0391C149.157 28.5287 148.989 28.9557 148.649 29.3225C148.314 29.6869 147.918 29.8722 147.471 29.8722H1.68586C1.23442 29.8722 0.842928 29.6869 0.50787 29.3225C0.16929 28.9557 0 28.5274 0 28.0391V8.88823C0.00117555 8.39862 0.16929 7.97166 0.50787 7.60477H0.506967ZM36.6583 1.83301V7.97293C37.781 8.3999 38.8767 9.13494 39.9429 10.1717C41.349 11.698 42.0496 13.6514 42.0496 16.0367C42.0496 18.3582 41.349 20.3126 39.9429 21.8991C38.4299 23.4881 36.6029 24.2832 34.4658 24.2832C32.2203 24.2832 30.3935 23.5188 28.9886 21.9925C27.4144 20.1593 26.6327 18.1728 26.6327 16.0368C26.6327 13.7153 27.4168 11.7596 28.9886 10.1717C30.1701 8.82821 31.6032 8.00242 33.2878 7.69562V1.83321C33.2878 1.3436 33.4559 0.916636 33.7957 0.549753C34.1307 0.182869 34.5234 6.49153e-05 34.9737 6.49153e-05C35.4815 6.49153e-05 35.9024 0.182866 36.2374 0.549753C36.5161 0.916636 36.6583 1.34488 36.6583 1.83321L36.6583 1.83301ZM36.6583 13.1923C36.6583 14.4144 36.0951 15.0254 34.9724 15.0254C34.521 15.0254 34.1295 14.8426 33.7944 14.4757C33.4558 14.1089 33.2865 13.6819 33.2865 13.1923V11.4538C32.6129 11.6366 31.9663 12.0635 31.3479 12.7347C30.4498 13.6512 30.0018 14.7519 30.0018 16.0353C30.0018 17.3162 30.4498 18.4181 31.3479 19.3334C32.2461 20.1886 33.2865 20.6168 34.4656 20.6168C35.6471 20.6168 36.684 20.1592 37.5868 19.2426C38.3146 18.4475 38.679 17.3788 38.679 16.0353C38.679 14.6918 38.2875 13.5911 37.501 12.7346C37.1659 12.3703 36.8826 12.1249 36.6581 12.0034L36.6592 13.1923L36.6583 13.1923ZM42.9784 7.05499H108.621C109.747 7.05499 110.307 7.66476 110.307 8.88813C110.307 9.37773 110.168 9.8047 109.886 10.1716C109.551 10.5385 109.129 10.7213 108.622 10.7213L42.9766 10.72C42.5252 10.72 42.1337 10.5372 41.7986 10.1703C41.4589 9.8047 41.2907 9.37518 41.2907 8.88813C41.2907 8.40107 41.4589 7.97156 41.7986 7.60467C42.1337 7.23651 42.524 7.05499 42.9766 7.05499H42.9784ZM118.146 1.83301V7.97293C119.269 8.3999 120.365 9.13494 121.434 10.1717C122.892 11.7581 123.623 13.7165 123.623 16.0367C123.623 18.2341 122.892 20.1912 121.434 21.8991C119.918 23.4881 118.091 24.2832 115.957 24.2832C113.765 24.2832 111.938 23.4881 110.48 21.8991C109.019 20.1887 108.288 18.2342 108.288 16.0367C108.288 13.7152 109.019 11.7595 110.48 10.1717C111.658 8.82814 113.091 8.00235 114.776 7.69555V1.83314C114.776 1.34354 114.944 0.91657 115.284 0.549687C115.619 0.182803 116.015 0 116.462 0C117.583 0 118.146 0.609771 118.146 1.83314L118.146 1.83301ZM111.658 16.0351C111.658 17.316 112.079 18.4179 112.922 19.3332C113.708 20.1884 114.718 20.6167 115.957 20.6167C117.08 20.6167 118.119 20.1897 119.075 19.3332C119.861 18.478 120.253 17.3799 120.253 16.0351C120.253 14.6903 119.861 13.6216 119.075 12.8278C118.681 12.4008 118.37 12.1235 118.146 12.0033V13.1921C118.146 14.4142 117.583 15.0253 116.46 15.0253C116.012 15.0253 115.617 14.8425 115.282 14.4756C114.943 14.1087 114.774 13.6817 114.774 13.1921V11.4536C114.156 11.6364 113.541 12.0634 112.92 12.7345C112.078 13.6511 111.658 14.7517 111.658 16.0352L111.658 16.0351ZM150 35.8274V114.722C150 115.149 149.859 115.576 149.579 116.005L119.999 149.45C119.664 149.815 119.242 150 118.736 150H2.52893C2.0775 150 1.68601 149.815 1.35095 149.45C1.01237 149.083 0.844252 148.655 0.844252 148.167V35.8274C0.844252 35.3378 1.01237 34.9108 1.35212 34.544C1.68718 34.1771 2.07984 33.9943 2.53011 33.9943H148.315C149.437 33.9955 150 34.6066 150 35.8287L150 35.8274ZM113.512 43.799C114.355 42.9438 115.477 42.5155 116.882 42.5155H129.861C131.264 42.5155 132.33 42.9425 133.06 43.799C133.846 44.6542 134.241 45.8162 134.241 47.2813V61.4834C134.241 63.0097 133.848 64.2011 133.06 65.0577C132.329 65.9129 131.264 66.3386 129.861 66.3386H116.882C115.421 66.3386 114.298 65.9129 113.512 65.0577C112.669 64.2024 112.248 63.011 112.248 61.4834V47.2813C112.248 45.815 112.669 44.653 113.512 43.799ZM115.618 47.2813V61.4834C115.618 61.973 115.674 62.2785 115.786 62.4C115.958 62.5828 116.319 62.6735 116.882 62.6735H129.861C130.309 62.6735 130.589 62.6135 130.704 62.4907C130.816 62.3693 130.872 62.0331 130.872 61.4834V47.2813C130.872 46.7917 130.817 46.4862 130.704 46.3647C130.59 46.2433 130.31 46.1794 129.861 46.1794L116.882 46.1781C116.319 46.1781 115.957 46.2714 115.786 46.4529C115.674 46.5769 115.618 46.8543 115.618 47.2813V47.2813ZM108.708 61.4834C108.708 63.0097 108.314 64.2011 107.53 65.0577C106.687 65.9129 105.535 66.3386 104.074 66.3386H91.0985C89.7489 66.3386 88.6815 65.9129 87.896 65.0577C87.1107 64.2024 86.7145 63.011 86.7145 61.4834V47.2813C86.7145 45.815 87.1084 44.653 87.896 43.799C88.6825 42.945 89.75 42.5155 91.0985 42.5155H104.074C105.535 42.5155 106.688 42.9425 107.53 43.799C108.314 44.6542 108.708 45.8162 108.708 47.2813V61.4834ZM134.241 76.6941V90.7136C134.241 94.0117 132.78 95.6594 129.86 95.6594H116.882C115.421 95.6594 114.298 95.2337 113.512 94.3785C112.669 93.4619 112.248 92.2399 112.248 90.7136V76.6941C112.248 75.1677 112.669 73.9457 113.512 73.0292C114.298 72.174 115.421 71.7457 116.882 71.7457H129.861C132.78 71.7457 134.241 73.3961 134.241 76.6941ZM129.861 75.4119H116.882C116.378 75.4119 116.039 75.504 115.871 75.6868C115.703 75.8696 115.618 76.2058 115.618 76.6941V90.7136C115.618 91.2633 115.704 91.5982 115.871 91.7209C116.039 91.9037 116.379 91.9945 116.882 91.9945H129.861C130.309 91.9945 130.562 91.9344 130.618 91.8117C130.786 91.6903 130.871 91.3221 130.871 90.7123V76.6928C130.871 76.1431 130.785 75.7762 130.618 75.5934C130.506 75.472 130.252 75.4119 129.861 75.4119V75.4119ZM109.129 106.198V120.309C109.129 121.838 108.735 123.027 107.951 123.884C107.108 124.738 105.983 125.167 104.58 125.167H91.5193C89.5513 125.167 88.2593 124.403 87.6408 122.876L87.555 122.691C87.2752 121.96 87.1341 121.165 87.1341 120.308V106.197C87.1341 105.403 87.2752 104.61 87.555 103.814C88.3415 102.166 89.6617 101.34 91.5192 101.34H104.58C105.983 101.34 107.108 101.767 107.951 102.624C108.735 103.482 109.129 104.67 109.129 106.198L109.129 106.198ZM108.708 90.7136C108.708 92.3001 108.314 93.5234 107.53 94.3786C106.687 95.2338 105.535 95.6595 104.074 95.6595H91.0984C89.7488 95.6595 88.6814 95.2338 87.8959 94.3786C87.1094 93.462 86.7144 92.2399 86.7144 90.7136V76.6941C86.7144 75.1678 87.1082 73.9457 87.8959 73.0292C88.6824 72.174 89.7499 71.7458 91.0984 71.7458H104.074C105.535 71.7458 106.688 72.1727 107.53 73.0292C108.314 73.8844 108.708 75.1078 108.708 76.6941V90.7136ZM90.0824 47.2806V61.4827C90.0824 62.0324 90.1682 62.3673 90.3352 62.4901C90.4468 62.6115 90.7008 62.6729 91.0958 62.6729H104.071C104.634 62.6729 105 62.5808 105.167 62.3993C105.278 62.2779 105.335 61.9723 105.335 61.4827V47.2806C105.335 46.8536 105.28 46.5762 105.167 46.4561C104.999 46.2733 104.634 46.1812 104.071 46.1812H91.0958C90.7019 46.1812 90.4221 46.2439 90.2529 46.3666C90.1388 46.5468 90.0824 46.8536 90.0824 47.2806L90.0824 47.2806ZM83.5131 47.2806V61.4827C83.5131 63.0091 83.1192 64.2005 82.3315 65.057C81.4886 65.9122 80.3659 66.3379 78.9611 66.3379H65.9834C64.5774 66.3379 63.4829 65.9122 62.6951 65.057C61.9086 64.2005 61.5171 63.0091 61.5171 61.4827V47.2806C61.5171 45.8144 61.9086 44.6524 62.6951 43.7983C63.4816 42.9442 64.5773 42.5149 65.9834 42.5149H78.9587C80.3647 42.5149 81.4863 42.9418 82.3291 43.7983C83.1168 44.6522 83.513 45.8143 83.513 47.2806H83.5131ZM78.2026 52.4119L72.9783 59.7418C72.6397 60.2314 72.1918 60.4742 71.6286 60.4742C71.3488 60.4742 71.0655 60.3809 70.7857 60.1994L66.658 57.3589C65.7011 56.7492 65.5318 55.8927 66.1502 54.7933C66.3747 54.3664 66.7133 54.0916 67.1612 53.9688C67.6127 53.9088 68.0347 54.0021 68.425 54.2437L71.2923 56.1676L75.5879 50.2119C75.8125 49.7849 76.1781 49.5408 76.6836 49.4807C77.1315 49.4206 77.5536 49.5407 77.9474 49.845C78.2825 50.1505 78.48 50.5775 78.5376 51.1285C78.5952 51.6168 78.4823 52.045 78.2025 52.4119L78.2026 52.4119ZM79.9708 46.4563C79.8591 46.2735 79.5228 46.1814 78.9597 46.1814H65.9832C65.252 46.1814 64.8876 46.5483 64.8876 47.2833V61.4855C64.8876 61.9751 64.9734 62.31 65.1403 62.4928C65.252 62.6142 65.5318 62.6756 65.9832 62.6756H78.9585C79.4664 62.6756 79.8015 62.5836 79.9696 62.402C80.0813 62.2806 80.1412 61.9751 80.1412 61.4855V47.2833C80.1424 46.8538 80.0836 46.5764 79.9707 46.4563H79.9708ZM53.5122 42.5138C54.9182 42.5138 56.0104 42.9408 56.7969 43.7973C57.5834 44.6525 57.9784 45.8145 57.9784 47.2796V61.4817C57.9784 64.7197 56.4865 66.3369 53.5121 66.3369H40.3638C39.0177 66.3369 37.9467 65.9112 37.1649 65.056C36.3784 64.2007 35.9834 63.0093 35.9834 61.4817V47.2796C35.9834 45.8133 36.3772 44.6513 37.1649 43.7973C37.949 42.9421 39.0189 42.5138 40.3638 42.5138L53.5122 42.5138ZM54.4409 46.4563C54.3269 46.2735 54.02 46.1814 53.5122 46.1814H40.3638C39.9724 46.1814 39.6926 46.2441 39.5209 46.3668C39.4092 46.5496 39.3528 46.8564 39.3528 47.2833V61.4855C39.3528 62.0352 39.4386 62.3701 39.6056 62.4928C39.7173 62.6142 39.9712 62.6756 40.3627 62.6756H53.511C53.9589 62.6756 54.2681 62.6155 54.4397 62.4928C54.5514 62.31 54.6078 61.9738 54.6078 61.4855V47.2833C54.6067 46.8538 54.5514 46.5764 54.4409 46.4563L54.4409 46.4563ZM65.9833 71.7454H78.9586C80.4199 71.7454 81.5426 72.1724 82.329 73.0289C83.1155 73.9454 83.5106 75.1675 83.5106 76.6938V90.7133C83.5106 92.2997 83.1167 93.523 82.329 94.3782C81.5425 95.2334 80.4198 95.6591 78.9586 95.6591H65.9833C64.5773 95.6591 63.4828 95.2334 62.695 94.3782C61.9085 93.4616 61.517 92.2395 61.517 90.7133V76.6938C61.517 75.1674 61.9085 73.9454 62.695 73.0289C63.4827 72.1724 64.5784 71.7454 65.9833 71.7454ZM65.1404 75.6865C64.9723 75.8079 64.8876 76.1441 64.8876 76.6938V90.7133C64.8876 91.263 64.9735 91.6299 65.1404 91.8127C65.2521 91.9342 65.5319 91.9955 65.9833 91.9955H78.9586C79.4665 91.9955 79.8015 91.9354 79.9696 91.8127C80.0813 91.6299 80.1413 91.263 80.1413 90.7133V76.6938C80.1413 76.1441 80.0825 75.8092 79.9696 75.6865C79.8015 75.5012 79.4653 75.4117 78.9586 75.4117H65.9833C65.5331 75.4117 65.2533 75.5012 65.1404 75.6865ZM54.441 75.6865C54.2693 75.5012 53.9601 75.4117 53.5122 75.4117H40.3639C39.9724 75.4117 39.7185 75.4717 39.6068 75.597C39.4387 75.7798 39.3541 76.1467 39.3541 76.6964V90.7159C39.3541 91.3257 39.4399 91.6926 39.6068 91.8153C39.7185 91.9367 39.9724 91.9981 40.3639 91.9981H53.5122C53.9602 91.9981 54.2693 91.938 54.441 91.8153C54.5527 91.6325 54.6091 91.2656 54.6091 90.7159V76.6964C54.6067 76.1442 54.5515 75.8067 54.441 75.6865V75.6865ZM53.5122 71.7454C56.4889 71.7454 57.9785 73.3945 57.9785 76.6938V90.7133C57.9785 94.0114 56.4866 95.6591 53.5122 95.6591H40.3639C39.0178 95.6591 37.9468 95.2334 37.165 94.3782C36.3785 93.4616 35.9835 92.2395 35.9835 90.7133V76.6938C35.9835 75.1674 36.3773 73.9454 37.165 73.0289C37.9492 72.1736 39.019 71.7454 40.3639 71.7454H53.5122ZM39.7761 106.199V120.31C39.7761 120.8 39.862 121.135 40.0289 121.317C40.1406 121.44 40.4204 121.503 40.8718 121.503H53.8471C54.2985 121.503 54.6077 121.443 54.7758 121.317C54.8875 121.135 54.944 120.798 54.944 120.31V106.199C54.944 105.709 54.8887 105.375 54.7758 105.191C54.6077 105.07 54.2985 105.008 53.8471 105.008L40.8718 105.007C40.4204 105.007 40.1406 105.067 40.0289 105.19C39.8596 105.375 39.7761 105.71 39.7761 106.199ZM53.8472 101.343C55.2533 101.343 56.3478 101.77 57.1355 102.627C57.922 103.482 58.3135 104.672 58.3135 106.199V120.31C58.3135 123.548 56.8251 125.166 53.8472 125.166L40.872 125.165C39.4659 125.165 38.3714 124.737 37.5873 123.882C36.8008 123.027 36.4058 121.836 36.4058 120.308V106.196C36.4058 104.67 36.7996 103.48 37.5873 102.624C38.3714 101.769 39.4659 101.341 40.872 101.341L53.8472 101.343ZM63.2028 102.627C63.9893 101.772 65.085 101.343 66.4875 101.343H79.4664C80.8689 101.343 81.9646 101.77 82.7511 102.627C83.5376 103.482 83.9326 104.672 83.9326 106.199V120.31C83.9326 121.839 83.5388 123.028 82.7511 123.884C81.9646 124.738 80.8689 125.168 79.4664 125.168H66.4875C65.085 125.168 63.9893 124.74 63.2028 123.884C62.4163 123.029 62.0249 121.839 62.0249 120.31V106.199C62.0249 104.671 62.4152 103.482 63.2028 102.627ZM65.6446 105.193C65.4765 105.378 65.3954 105.712 65.3954 106.2V120.311C65.3954 120.801 65.4777 121.136 65.6446 121.319C65.7563 121.441 66.0385 121.504 66.4875 121.504H79.4664C79.9144 121.504 80.2235 121.444 80.3916 121.319C80.5033 121.136 80.5633 120.8 80.5633 120.311V106.2C80.5633 105.71 80.5045 105.377 80.3916 105.193C80.2235 105.071 79.9144 105.01 79.4664 105.01H66.4875C66.0408 105.008 65.7575 105.07 65.6446 105.193ZM105.167 75.6874C104.999 75.502 104.634 75.4126 104.071 75.4126H91.0957C90.7019 75.4126 90.4468 75.4726 90.3351 75.5979C90.167 75.7807 90.0823 76.1476 90.0823 76.6973V90.7168C90.0823 91.3266 90.1682 91.6935 90.3351 91.8162C90.4468 91.9376 90.7007 91.999 91.0957 91.999H104.071C104.634 91.999 105 91.9069 105.167 91.7254C105.278 91.604 105.335 91.2678 105.335 90.7181V76.6986C105.336 76.1451 105.28 75.8076 105.167 75.6874V75.6874ZM90.6748 105.375C90.5608 105.375 90.5032 105.649 90.5032 106.199V120.31L90.6748 121.318C90.7865 121.44 91.0663 121.503 91.5178 121.503H104.579C105.083 121.503 105.422 121.41 105.59 121.228C105.702 121.107 105.758 120.801 105.758 120.311V106.2C105.758 105.71 105.703 105.406 105.59 105.283C105.422 105.101 105.082 105.01 104.579 105.01H91.5178C90.9546 105.009 90.6748 105.13 90.6748 105.375V105.375ZM118.732 113.255H146.628V37.6596H4.21362V146.334H117.046V115.088C117.046 114.597 117.218 114.171 117.554 113.804C117.889 113.44 118.286 113.256 118.731 113.256L118.732 113.255ZM120.418 143.585L144.1 116.921H120.418V143.585ZM33.6215 76.6944V90.7139C33.6215 94.0119 32.1637 95.6597 29.2398 95.6597H16.0951C14.7455 95.6597 13.678 95.234 12.8926 94.3787C12.1061 93.4622 11.7111 92.2401 11.7111 90.7138V76.6943C11.7111 75.168 12.1049 73.9459 12.8926 73.0294C13.6791 72.1742 14.7465 71.746 16.0951 71.746H29.2398C30.6459 71.746 31.7121 72.1729 32.4423 73.0294C33.23 73.8846 33.6215 75.108 33.6215 76.6943V76.6944ZM29.241 75.4122H16.0963C15.7025 75.4122 15.4474 75.4723 15.3357 75.5975C15.1676 75.7803 15.0829 76.1472 15.0829 76.6969V90.7164C15.0829 91.3262 15.1687 91.6931 15.3357 91.8158C15.4474 91.9372 15.7013 91.9986 16.0963 91.9986H29.241C29.6924 91.9986 29.9417 91.9385 30.0016 91.8158C30.1697 91.6944 30.2509 91.3262 30.2509 90.7164V76.6969C30.2509 76.1472 30.1686 75.7803 30.0016 75.5975C29.8841 75.4723 29.6348 75.4122 29.241 75.4122ZM16.5185 101.343H29.5796C30.9821 101.343 32.0778 101.77 32.8643 102.627C33.6508 103.482 34.0423 104.672 34.0423 106.198V120.31C34.0423 123.548 32.5539 125.166 29.5796 125.166H16.5186C15.1125 125.166 14.018 124.738 13.2303 123.883C12.4438 123.027 12.0523 121.837 12.0523 120.308V106.197C12.0523 104.671 12.4438 103.48 13.2303 102.625C14.0168 101.77 15.1125 101.343 16.5186 101.343H16.5185ZM15.4205 106.198V120.31C15.4205 120.799 15.5028 121.134 15.6733 121.317C15.785 121.44 16.0648 121.502 16.5162 121.502H29.5773C30.0252 121.502 30.3343 121.442 30.5025 121.317C30.6141 121.134 30.6706 120.798 30.6706 120.31V106.198C30.6706 105.709 30.6153 105.375 30.5025 105.191C30.3343 105.069 30.0252 105.008 29.5773 105.008H16.5162C16.0648 105.008 15.785 105.068 15.6733 105.191C15.5028 105.375 15.4205 105.71 15.4205 106.198Z" fill="#FFEBD1"/>
</svg>
