<svg width="150" height="150" viewBox="0 0 150 150" fill="none" xmlns="http://www.w3.org/2000/svg">
<path d="M131.012 54.4284C135.679 54.4284 139.512 50.1269 139.512 44.89C139.512 39.653 135.679 35.3516 131.012 35.3516C126.345 35.3516 122.512 39.653 122.512 44.89C122.512 50.1256 126.345 54.4284 131.012 54.4284ZM131.012 38.3434C134.179 38.3434 136.846 41.3363 136.846 44.8903C136.846 48.4443 134.179 51.4371 131.012 51.4371C127.845 51.4371 125.178 48.6322 125.178 44.8903C125.178 41.1484 127.678 38.3434 131.012 38.3434Z" fill="#FFEBD1"/>
<path d="M18.504 54.4284C23.1708 54.4284 27.004 50.1269 27.004 44.89C27.004 39.653 23.1708 35.3516 18.504 35.3516C13.8371 35.3516 10.0039 39.653 10.0039 44.89C10.0039 50.1256 13.6707 54.4284 18.504 54.4284ZM18.504 38.3434C21.671 38.3434 24.3381 41.3363 24.3381 44.8903C24.3381 48.4443 21.6711 51.4371 18.504 51.4371C15.3368 51.4371 12.6698 48.6322 12.6698 44.8903C12.6698 41.1484 15.1706 38.3434 18.504 38.3434Z" fill="#FFEBD1"/>
<path d="M73.5067 62.4703C80.173 62.4703 85.6736 56.2982 85.6736 48.8172C85.6736 41.3365 80.1733 35.1641 73.5067 35.1641C66.6728 35.1641 61.3398 41.1498 61.3398 48.8172C61.3387 56.4859 66.8392 62.4703 73.5067 62.4703ZM73.5067 38.1556C78.6733 38.1556 83.0077 43.0182 83.0077 48.8172C83.0077 54.6149 78.6745 59.4788 73.5067 59.4788C68.1726 59.4788 64.0057 54.803 64.0057 48.8172C64.1731 42.8315 68.3398 38.1556 73.5067 38.1556Z" fill="#FFEBD1"/>
<path d="M100.844 14.5886C104.511 14.5886 107.344 11.2227 107.344 7.29432C107.344 3.36594 104.345 0 100.844 0C97.3433 0 94.3438 3.36594 94.3438 7.29432C94.3438 11.2227 97.3433 14.5886 100.844 14.5886ZM100.844 2.80518C103.011 2.80518 104.677 4.86261 104.677 7.10662C104.677 9.35063 102.844 11.4081 100.844 11.4081C98.6769 11.4081 97.0108 9.53719 97.0108 7.10662C97.0108 4.67605 98.6769 2.80518 100.844 2.80518Z" fill="#FFEBD1"/>
<path d="M45.5081 14.5886C49.1749 14.5886 52.0083 11.2227 52.0083 7.29432C52.0083 3.36594 49.0088 0 45.5081 0C42.0073 0 39.0078 3.36594 39.0078 7.29432C39.0078 11.2227 41.8411 14.5886 45.5081 14.5886ZM45.5081 2.80518C47.6752 2.80518 49.3413 4.86261 49.3413 7.10662C49.3413 9.35063 47.5078 11.4081 45.5081 11.4081C43.341 11.4081 41.6749 9.53719 41.6749 7.10662C41.6749 4.67605 43.3421 2.80518 45.5081 2.80518Z" fill="#FFEBD1"/>
<path d="M92.6743 69.2024C92.0082 66.584 89.841 64.5265 87.3402 64.3398H87.0065H81.5063H81.3401H66.6737H66.34H60.6734H60.3398C57.8401 64.5264 55.6729 66.5839 55.0056 69.2024L46.6719 99.6893C46.172 101.372 46.3383 103.243 47.1719 104.926C48.0055 106.609 49.339 107.731 50.8387 108.292C51.3386 108.479 52.006 108.479 52.5059 108.479C55.1729 108.479 57.6725 106.421 58.3401 103.428L59.1737 100.249V141.584C59.1737 146.073 62.3408 149.625 66.34 149.625C70.3405 149.625 73.5064 146.071 73.5064 141.584L73.5075 109.601C73.5075 109.415 73.6738 109.227 73.8412 109.227C74.0075 109.227 74.1749 109.414 74.1749 109.601V141.958C74.1749 146.447 77.342 150 81.3413 150C85.3417 150 88.5076 146.446 88.5076 141.958V100.998L89.1738 103.616C90.0074 106.609 92.3409 108.666 95.008 108.666C95.5079 108.666 96.1752 108.666 96.6752 108.48C100.008 107.358 101.842 103.617 100.842 99.8754L92.6743 69.2024ZM96.5075 105.3C96.1739 105.487 95.8414 105.487 95.5077 105.487C94.0079 105.487 92.6744 104.365 92.1745 102.682L88.8413 90.7114C88.6751 89.9638 88.0077 89.5894 87.3415 89.5894C86.6754 89.7759 86.1743 90.3369 86.1743 91.0858V141.585C86.1743 144.39 84.1745 146.635 81.6738 146.635C79.1742 146.635 77.1733 144.391 77.1733 141.585L77.1745 109.601C77.1745 107.731 75.8409 106.048 74.0074 106.048C72.3402 106.048 70.8403 107.544 70.8403 109.601V141.958C70.8403 144.763 68.8406 147.008 66.3398 147.008C63.8402 147.008 61.8393 144.764 61.8393 141.958L61.8405 90.3367C61.8405 89.5891 61.3406 89.0268 60.6732 88.8402C60.007 88.6537 59.3397 89.2146 59.1734 89.9622L55.6727 102.868C55.1728 104.551 53.8392 105.673 52.3395 105.673C52.0058 105.673 51.6733 105.673 51.3397 105.486C50.5061 105.112 49.6724 104.551 49.3399 103.615C48.84 102.68 48.84 101.745 49.0063 100.623L57.3399 70.1357C57.6736 68.6393 59.0071 67.5173 60.507 67.3307H60.6733H66.3399H66.5061H81.1737H81.3399H86.5065H86.6728C88.1726 67.3307 89.5061 68.4528 89.8399 70.1357L98.5072 100.623C99.3419 102.493 98.3409 104.739 96.5074 105.3L96.5075 105.3Z" fill="#FFEBD1"/>
<path d="M83.3416 74.2539H76.8413C76.1752 74.2539 75.5078 75.0015 75.5078 75.7503C75.5078 76.4979 76.174 77.2468 76.8413 77.2468H83.3416C84.0078 77.2468 84.6751 76.4992 84.6751 75.7503C84.6751 75.0015 84.1752 74.2539 83.3416 74.2539Z" fill="#FFEBD1"/>
<path d="M138.178 62.2812H133.845C133.179 62.2812 132.512 63.0288 132.512 63.7777C132.512 64.5253 133.178 65.2741 133.845 65.2741H138.178C138.845 65.2741 139.512 64.5266 139.512 63.7777C139.512 63.0288 138.846 62.2812 138.178 62.2812Z" fill="#FFEBD1"/>
<path d="M149.845 79.3005L144.178 59.1009C143.679 57.0434 142.179 55.7349 140.345 55.5469H140.012H136.345H136.179H126.345H126.179H122.346H122.012C120.179 55.7334 118.679 57.2299 118.012 59.1009L112.511 79.3005C111.845 81.9189 113.178 84.9119 115.511 85.6593C117.678 86.4069 119.844 85.2849 120.845 83.2275V107.542C120.845 110.908 123.845 113.34 126.512 113.34C128.179 113.34 129.845 112.592 131.012 111.096C132.179 112.406 133.845 113.34 135.513 113.34C138.512 113.34 141.179 110.535 141.179 107.542L141.178 83.4155C142.178 85.473 144.345 86.4084 146.345 85.8474C147.512 85.4729 148.512 84.5375 149.012 83.4155C150.011 82.1057 150.178 80.7971 149.845 79.3008L149.845 79.3005ZM147.178 81.9189C147.012 82.4799 146.512 82.6665 146.011 82.8544C145.011 83.2288 144.011 82.4799 143.677 81.3579L141.51 73.5025C141.344 72.7549 140.677 72.3805 140.01 72.3805C139.344 72.5671 138.843 73.1281 138.843 73.8769V107.356C138.843 108.852 137.343 110.161 135.844 110.161C134.344 110.161 132.677 108.851 132.677 107.356L132.678 86.2208C132.678 85.4733 132.012 84.7244 131.344 84.7244C130.677 84.7244 130.011 85.2854 130.011 86.2208V107.543C130.011 109.039 128.343 110.348 126.844 110.348C125.51 110.348 123.844 109.038 123.844 107.543L123.843 73.3155C123.843 72.5679 123.343 72.0056 122.676 71.8191C122.009 71.6325 121.342 72.1935 121.176 72.9411L118.842 81.5453C118.509 82.6673 117.509 83.2283 116.509 82.8552C115.509 82.4807 115.009 81.3587 115.176 80.2368L120.676 60.0371C120.842 59.2895 121.509 58.7272 122.343 58.5407H122.509H126.176H126.342H136.009H136.176H139.676H139.843C140.676 58.5407 141.342 59.1017 141.51 60.0371L147.176 80.2368C147.344 80.7978 147.344 81.3588 147.178 81.9198L147.178 81.9189Z" fill="#FFEBD1"/>
<path d="M25.1707 62.2812H20.8374C20.1713 62.2812 19.5039 63.0288 19.5039 63.7777C19.5039 64.5253 20.1701 65.2741 20.8374 65.2741H25.1707C25.8368 65.2741 26.5042 64.5266 26.5042 63.7777C26.5042 63.0288 25.838 62.2812 25.1707 62.2812Z" fill="#FFEBD1"/>
<path d="M31.5062 59.2884C31.0063 57.2309 29.5065 55.9224 27.673 55.7344H27.3393H23.6725H23.5063H13.6728H13.5066H9.67338H9.3397C7.50624 55.9209 6.00654 57.4174 5.33925 59.2884L0.17148 79.488C-0.494707 82.1064 0.837666 85.0994 3.171 85.8468C5.33812 86.5944 7.50422 85.4724 8.50515 83.415V107.73C8.50515 111.096 11.5047 113.527 14.1717 113.527C15.839 113.527 17.5049 112.405 18.6722 111.096C19.8395 112.592 21.5055 113.527 23.1727 113.527C25.8397 113.527 28.8393 111.096 28.8393 107.73V83.4163C29.173 84.1639 29.8392 84.9128 30.6728 85.2872C31.6726 85.8482 33.0061 86.0348 34.1735 85.6616C35.3408 85.2872 36.3406 84.3518 36.8405 83.2298C37.3405 82.1078 37.5067 80.6114 37.1742 79.3014L31.5062 59.2884ZM34.5069 81.9201C34.3406 82.4811 33.8407 82.6677 33.3396 82.8556C32.8397 83.0421 32.3398 83.0421 32.0061 82.669C31.5062 82.4824 31.3399 81.9214 31.1725 81.3591L29.0054 73.5037C28.8391 72.7561 28.1718 72.3817 27.5056 72.3817C26.8394 72.5683 26.3383 73.1293 26.3383 73.8781V107.357C26.3383 108.854 24.6711 110.162 23.3388 110.162C21.839 110.349 20.0056 108.479 20.0056 106.983V85.6609C20.0056 84.9133 19.3394 84.1645 18.6721 84.1645C18.0059 84.1645 17.3385 84.912 17.3385 85.6609V106.983C17.3385 108.479 15.6713 110.162 14.1714 110.162C12.8379 110.162 11.1719 108.852 11.1719 107.357V73.317C11.1719 72.5695 10.672 72.0072 10.0046 71.8206C9.33845 71.634 8.6711 72.195 8.50484 72.9426L6.17148 81.5468C5.8378 82.6688 4.83794 83.2298 3.83811 82.8567C2.83825 82.4823 2.33832 81.3603 2.50457 80.2383L8.0048 60.0386C8.17105 59.2911 8.8384 58.7288 9.672 58.5422H9.83826H13.5051H13.6713H23.3384H23.5046H27.0054H27.1716C28.0052 58.5422 28.6714 59.1032 28.8388 60.0386L34.5054 80.2383C34.8391 80.7993 34.8391 81.3603 34.5066 81.9213L34.5069 81.9201Z" fill="#FFEBD1"/>
<path d="M53.6756 54.427V37.9677C54.6755 38.9031 56.009 39.2776 57.1764 38.9031C58.1762 38.5287 58.8436 37.9677 59.3435 36.8457C59.8434 35.9103 59.8434 34.7883 59.6772 33.6663L55.5103 18.8913C55.0104 17.2083 53.8431 16.0863 52.3432 15.8984H52.0096H42.1761H42.0099H39.1766H38.8429C37.3431 16.085 36.1759 17.2083 35.6758 18.8913L31.8414 33.6663C31.5077 34.7883 31.6752 35.9103 32.1751 36.8457C32.675 37.7811 33.5086 38.5287 34.3422 38.9031C35.6757 39.2776 37.0093 38.9031 38.009 37.7811V54.4272C38.009 56.859 40.1761 59.103 42.5095 59.103C43.6768 59.103 44.8429 58.542 45.8427 57.6066C46.6763 58.542 48.0098 59.103 49.1758 59.103C51.1756 59.103 53.6751 57.2321 53.6751 54.4272L53.6756 54.427ZM47.0093 54.427V38.7165C47.0093 37.9689 46.3431 37.2201 45.6758 37.2201C45.0096 37.2201 44.3422 37.9676 44.3422 38.7165V54.427C44.3422 55.1746 43.3424 56.11 42.3425 56.11C41.5089 56.11 40.509 55.1746 40.509 54.427L40.5079 29.3648C40.5079 28.6172 40.0079 28.0549 39.3406 27.8684C38.6744 27.6818 38.0071 28.2428 37.8408 28.9904L36.1736 35.3492C36.0073 35.9102 35.5074 36.2846 35.0063 36.0968C34.6726 36.0968 34.5064 35.9102 34.3401 35.5358C34.1739 35.3492 34.1739 34.9748 34.1739 34.7882L38.1743 20.0132C38.3406 19.4522 38.6743 19.2656 39.1742 19.2656H39.3404H42.0075H42.1737H51.6735H51.8398C52.3397 19.2656 52.6734 19.6401 52.8396 20.0132L57.0065 34.7882V35.7236C56.8402 35.9102 56.6728 36.0981 56.3403 36.2846C55.8404 36.4712 55.3404 36.0981 55.173 35.5371L53.5058 29.7394C53.3395 28.9918 52.6722 28.6173 52.006 28.6173C51.3398 28.8039 50.8387 29.3649 50.8387 30.1138V54.8029C50.8387 55.5505 49.8389 56.4859 49.0053 56.4859C48.1751 56.1102 47.009 55.1748 47.009 54.4272L47.0093 54.427Z" fill="#FFEBD1"/>
<path d="M52.1744 23.0043C52.1744 22.2567 51.5082 21.5078 50.8409 21.5078H47.8413C47.1752 21.5078 46.5078 22.2554 46.5078 23.0043C46.5078 23.7518 47.174 24.5007 47.8413 24.5007H50.8409C51.6745 24.5007 52.1744 23.7531 52.1744 23.0043Z" fill="#FFEBD1"/>
<path d="M114.842 36.8457C115.342 35.9103 115.342 34.7883 115.176 33.6663L111.009 18.8913C110.509 17.2083 109.342 16.0863 107.842 15.8984H107.508H97.6751H97.5088H94.6755H94.3418C92.842 16.085 91.5085 17.2083 91.1747 18.8913L87.1743 33.6663C86.6743 35.9103 87.6742 38.1554 89.6739 38.7165C90.6738 39.091 91.6736 38.9031 92.5072 38.3421C92.8409 38.1555 93.0071 37.9677 93.3408 37.5945V54.2406C93.3408 56.6724 95.5079 58.9164 97.8413 58.9164C99.0086 58.9164 100.175 58.3554 101.174 57.42C102.174 58.3554 103.342 58.9164 104.508 58.9164C106.675 58.9164 109.008 57.0455 109.008 54.2406V37.7812C109.174 37.9678 109.508 38.1557 109.842 38.3422C110.675 38.9032 111.675 38.9032 112.675 38.7167C113.509 38.5288 114.342 37.7812 114.842 36.8458L114.842 36.8457ZM112.509 35.3493C112.343 35.5358 112.175 35.7237 111.843 35.9103H111.009C110.843 35.7237 110.676 35.5358 110.509 35.1627L108.842 29.365C108.676 28.6174 108.008 28.243 107.342 28.243C106.676 28.4295 106.175 28.9905 106.175 29.7394V54.4286C106.175 55.1761 105.175 56.1116 104.342 56.1116C103.342 56.1116 102.342 55.1761 102.342 54.4286V38.718C102.342 37.9705 101.676 37.2216 101.008 37.2216C100.342 37.2216 99.6748 37.9692 99.6748 38.718V54.2395C99.6748 54.9871 98.6749 56.1104 97.6751 56.1104C96.8414 56.1104 95.8416 55.175 95.8416 54.4274V29.3652C95.8416 28.6176 95.3417 28.0553 94.6743 27.8687H94.5081C93.8419 27.8687 93.3408 28.2432 93.1745 28.9907L91.5073 35.3496C91.5073 35.724 91.341 35.9106 91.0074 36.0971C90.8411 36.2837 90.5074 36.2837 90.1738 36.0971C89.8401 36.0971 89.6738 35.9106 89.5076 35.5361C89.3413 35.3496 89.3413 34.9751 89.3413 34.7886L93.3418 20.0136C93.508 19.4525 93.8417 19.266 94.3416 19.266H94.5079H97.1749H97.3412H106.841H107.007C107.507 19.266 107.841 19.6404 108.007 20.0136L112.174 34.7886C112.509 34.7886 112.509 35.163 112.509 35.3496L112.509 35.3493Z" fill="#FFEBD1"/>
<path d="M106.177 22.0703H103.177C102.511 22.0703 101.844 22.8179 101.844 23.5668C101.844 24.3143 102.51 25.0632 103.177 25.0632H106.177C106.843 25.0632 107.51 24.3156 107.51 23.5668C107.51 22.6326 106.844 22.0703 106.177 22.0703Z" fill="#FFEBD1"/>
</svg>
