<svg width="150" height="150" viewBox="0 0 150 150" fill="none" xmlns="http://www.w3.org/2000/svg">
<path d="M127.378 117.165C137.153 109.708 144.909 99.2076 149.78 86.8419C150.073 86.1196 150.073 85.2814 149.78 84.5591C144.909 72.1934 137.153 61.7118 127.378 54.2355C117.341 46.5692 105.659 42.5169 93.6012 42.5169C81.5441 42.5169 69.8786 46.5692 59.8248 54.2355C51.3529 60.7031 44.428 69.4166 39.5402 79.6511C31.687 63.1581 18.6043 50.8306 3.00982 45.4676C1.93405 45.1058 0.793921 45.6574 0.272401 46.8179C-0.249118 47.9784 -0.00472281 49.3861 0.85939 50.2229C8.9735 57.9655 15.6048 70.5402 19.5631 85.701C15.6374 100.863 9.00618 113.456 0.89207 121.179C0.0290716 121.997 -0.215321 123.424 0.305081 124.584C0.712029 125.498 1.52704 126.049 2.37479 126.049C2.60282 126.049 2.81447 126.011 3.0425 125.934C18.6345 120.57 31.7188 108.243 39.5729 91.751C44.4442 101.986 51.3855 110.718 59.8574 117.167C68.1341 123.482 77.5029 127.344 87.2947 128.504V147.261C87.2947 148.326 87.8326 149.297 88.6629 149.753C88.9728 149.924 89.3142 150 89.6405 150C90.1947 150 90.7326 149.772 91.1559 149.353L117.012 123.556C120.596 121.809 124.067 119.677 127.375 117.167L127.378 117.165ZM145.055 85.7005C143.295 89.9615 141.161 93.9565 138.717 97.6089H132.118L128.273 91.6547L124.526 94.9452L129.071 102.003C129.51 102.688 130.211 103.087 130.944 103.087H134.626C129.853 108.832 124.247 113.511 118.073 116.935L118.074 96.8678C118.074 96.1455 117.83 95.441 117.39 94.9276L104.486 79.8614L104.485 49.2333C121.968 53.2282 137.17 66.6397 145.055 85.6995L145.055 85.7005ZM11.6666 116.024C17.0268 108.034 21.3932 97.9132 24.2767 86.4812C24.4065 85.9679 24.4065 85.4354 24.2767 84.9207C21.3767 73.4874 17.0268 63.3677 11.6666 55.3779C22.5989 61.9602 31.5278 72.5563 36.9689 85.7014C31.528 98.8455 22.6151 109.442 11.6666 116.024V116.024ZM42.15 85.7005C45.1646 78.4151 49.2374 71.9655 54.1088 66.5438V82.0291C54.1088 82.7514 54.3532 83.4558 54.7928 83.9692L68.0884 99.493C67.5505 100.73 67.2406 102.118 67.2406 103.603C67.2406 108.549 70.6948 112.582 74.9313 112.582C79.1678 112.582 82.622 108.549 82.622 103.603C82.622 98.6562 79.1678 94.6231 74.9313 94.6231C73.6602 94.6231 72.471 94.9849 71.4115 95.6129L58.8014 80.8895V61.8652C63.7711 57.3951 69.3594 53.8946 75.3382 51.5351L75.3393 82.0295C75.3393 82.7518 75.5837 83.4563 76.0234 83.9697L89.3189 99.4934C88.781 100.73 88.4712 102.119 88.4712 103.603C88.4712 108.55 91.9253 112.583 96.1618 112.583C100.398 112.583 103.853 108.55 103.853 103.603C103.853 98.6566 100.398 94.6236 96.1618 94.6236C94.8908 94.6236 93.7015 94.9853 92.642 95.6134L80.0319 80.8899L80.0308 49.9383C84.4299 48.6631 88.9915 47.9981 93.635 47.9981C95.7199 47.9981 97.7897 48.1319 99.8431 48.3981V81.0045C99.8431 81.7268 100.088 82.4313 100.527 82.9446L113.431 98.0109V119.242C107.191 121.944 100.495 123.407 93.635 123.407C71.738 123.406 51.6498 108.644 42.1506 85.7016L42.15 85.7005ZM74.9154 100.083C76.5606 100.083 77.9134 101.661 77.9134 103.583C77.9134 105.504 76.5616 107.084 74.9154 107.084C73.2701 107.084 71.9173 105.506 71.9173 103.583C71.9184 101.662 73.2538 100.083 74.9154 100.083ZM96.1295 100.083C97.7747 100.083 99.1275 101.661 99.1275 103.583C99.1275 105.504 97.7757 107.084 96.1295 107.084C94.4842 107.084 93.1314 105.506 93.1314 103.583C93.1314 101.662 94.4832 100.083 96.1295 100.083ZM91.9583 141.307V128.847C92.5126 128.866 93.0504 128.866 93.6036 128.866C97.7418 128.866 101.831 128.391 105.84 127.459L91.9583 141.307ZM119.525 82.2019C123.762 82.2019 127.216 78.1689 127.216 73.2223C127.216 68.2758 123.762 64.2427 119.525 64.2427C115.289 64.2427 111.835 68.2758 111.835 73.2223C111.835 78.1689 115.289 82.2019 119.525 82.2019ZM119.525 69.7215C121.171 69.7215 122.524 71.2998 122.524 73.222C122.524 75.143 121.172 76.7225 119.525 76.7225C117.88 76.7225 116.527 75.1442 116.527 73.222C116.527 71.2819 117.88 69.7215 119.525 69.7215ZM108.528 26.9938C103.525 22.3134 97.2204 19.7452 90.7855 19.7452C84.3495 19.7452 78.0444 22.3134 73.0432 26.9938C72.5217 27.488 72.2118 28.1925 72.1638 28.9721C72.1311 29.7517 72.3755 30.5135 72.8479 31.0651L78.3871 37.5327C78.8431 38.0652 79.4465 38.3314 80.0487 38.3314C80.5211 38.3314 81.0099 38.1607 81.4169 37.818C87.0052 33.0818 94.5322 33.0818 100.137 37.818C101.065 38.6167 102.353 38.4843 103.168 37.5327L108.707 31.0651C109.179 30.5135 109.424 29.753 109.391 28.9721C109.358 28.1925 109.05 27.4702 108.528 26.9938H108.528ZM101.196 32.092C94.76 27.678 86.7934 27.678 80.3574 32.092L78.1087 29.4665C85.7832 23.8168 95.7541 23.8168 103.427 29.4665L101.196 32.092ZM113.465 24.3682C114.068 24.3682 114.67 24.102 115.126 23.5695L120.715 17.0446C121.171 16.5121 121.415 15.7694 121.399 15.028C121.383 14.2675 121.089 13.563 120.6 13.0688C112.356 4.64193 101.766 0 90.7844 0C79.8032 0 69.2125 4.64193 60.9685 13.0688C60.4797 13.563 60.1862 14.2866 60.1699 15.028C60.1535 15.7885 60.3979 16.5121 60.854 17.0446L66.4423 23.5695C67.3053 24.5771 68.6909 24.6345 69.6194 23.7211C81.8882 11.5658 99.695 11.5658 111.965 23.7211C112.389 24.1593 112.927 24.3682 113.465 24.3682L113.465 24.3682ZM90.7844 9.18851C82.6376 9.18851 74.7198 12.2892 68.2676 17.977L65.9862 15.3133C80.5199 2.22528 101.034 2.22528 115.566 15.3133L113.284 17.977C106.834 12.2892 98.9317 9.18851 90.785 9.18851H90.7844Z" fill="#FFEBD1"/>
</svg>
