<svg width="150" height="150" viewBox="0 0 150 150" fill="none" xmlns="http://www.w3.org/2000/svg">
<path d="M75.2493 52.3228C77.313 52.3228 78.9875 50.6495 78.9875 48.5846C78.9875 46.5209 77.313 44.8477 75.2493 44.8477C67.3187 44.8477 59.7135 47.9976 54.1056 53.6056C48.4976 59.2135 45.3477 66.8187 45.3477 74.7493C45.3477 82.68 48.4976 90.2852 54.1056 95.8931C59.7135 101.501 67.3187 104.651 75.2493 104.651C83.18 104.651 90.7852 101.501 96.3931 95.8931C102.001 90.2852 105.151 82.68 105.151 74.7493C105.151 72.6856 103.478 71.0111 101.414 71.0111C99.3492 71.0111 97.6759 72.6856 97.6759 74.7493C97.6759 80.6975 95.3131 86.4019 91.1068 90.6068C86.9019 94.8131 81.1975 97.1759 75.2493 97.1759C69.3012 97.1759 63.5968 94.8131 59.3918 90.6068C55.1856 86.4019 52.8228 80.6975 52.8228 74.7493C52.8228 68.8012 55.1856 63.0968 59.3918 58.8918C63.5968 54.6856 69.3012 52.3228 75.2493 52.3228Z" fill="#FFEBD1"/>
<path d="M146.567 52.549C145.928 50.6042 143.847 49.5329 141.895 50.1436C139.941 50.7543 138.843 52.8218 139.427 54.7827C143.951 69.1998 143.509 84.7184 138.172 98.8574C132.834 112.994 122.91 124.932 109.986 132.763C97.0616 140.593 81.8849 143.861 66.8818 142.048C51.8804 140.233 37.9201 133.44 27.2348 122.754C16.5495 112.068 9.75782 98.108 7.94447 83.1065C6.13105 68.1051 9.4012 52.9284 17.2329 40.0059C25.0633 27.0817 37.0026 17.1589 51.1387 11.8224C65.2767 6.48613 80.795 6.04433 95.2133 10.5696C96.1657 10.8888 97.2057 10.8112 98.1005 10.3556C98.9953 9.89882 99.6686 9.10162 99.9689 8.14301C100.268 7.18437 100.17 6.14564 99.6961 5.26085C99.2218 4.37605 98.4121 3.71902 97.4472 3.43744C81.4356 -1.58483 64.2014 -1.09177 48.5028 4.83785C32.8042 10.7662 19.5472 21.7891 10.8518 36.1412C2.15766 50.4945 -1.47289 67.3481 0.543263 84.0091C2.55816 100.669 10.1021 116.172 21.9686 128.036C33.8352 139.901 49.3374 147.444 65.9984 149.459C82.6582 151.472 99.5133 147.842 113.863 139.146C128.215 130.451 139.237 117.194 145.165 101.495C151.092 85.7965 151.584 68.5633 146.562 52.5507L146.567 52.549Z" fill="#FFEBD1"/>
<path d="M82.3699 26.6768C82.3875 24.5493 80.753 22.772 78.6318 22.6108C77.5142 22.5132 76.3979 22.4219 75.2514 22.4219C61.3726 22.4219 48.0631 27.9346 38.2508 37.7488C28.4366 47.5617 22.9238 60.8713 22.9238 74.7495C22.9238 88.6277 28.4366 101.938 38.2508 111.75C48.0637 121.564 61.3732 127.077 75.2514 127.077C89.1296 127.077 102.44 121.564 112.252 111.75C122.066 101.937 127.579 88.6277 127.579 74.7495C127.579 73.3979 127.496 72.0463 127.331 70.7047C127.237 69.6547 126.707 68.691 125.868 68.0503C125.031 67.4083 123.962 67.1492 122.924 67.3332C121.884 67.5171 120.97 68.1291 120.404 69.0189C119.837 69.9087 119.67 70.9963 119.944 72.015C120.024 72.921 120.104 73.8221 120.104 74.7495C120.104 86.6449 115.378 98.0533 106.967 106.466C98.5546 114.877 87.1462 119.603 75.2508 119.603C63.3554 119.603 51.947 114.877 43.5345 106.466C35.1232 98.0533 30.3976 86.6449 30.3976 74.7495C30.3976 62.8541 35.1232 51.4457 43.5345 43.0332C51.947 34.6219 63.3554 29.8963 75.2508 29.8963C76.1781 29.8963 77.0754 29.9802 77.9815 30.0565L78.6823 30.1191C79.6297 30.1604 80.5546 29.8187 81.2479 29.1717C81.9412 28.5235 82.3454 27.6249 82.3692 26.6763L82.3699 26.6768Z" fill="#FFEBD1"/>
<path d="M97.6759 33.6332V47.0366L72.6062 72.1051C71.8903 72.8034 71.4848 73.7583 71.4786 74.7582C71.4723 75.7569 71.8665 76.718 72.5724 77.4251C73.2795 78.1309 74.2406 78.5252 75.2393 78.5189C76.2392 78.5127 77.1941 78.1072 77.8924 77.3913L102.961 52.3216H116.364C117.355 52.3216 118.307 51.9274 119.007 51.2266L141.434 28.8C142.503 27.7312 142.823 26.1231 142.244 24.7264C141.665 23.3297 140.303 22.4199 138.791 22.4199H127.578V11.2066C127.578 9.69479 126.668 8.33193 125.271 7.75387C123.874 7.17443 122.266 7.49481 121.198 8.56356L98.771 30.9901C98.0701 31.691 97.6759 32.6421 97.6759 33.6333L97.6759 33.6332ZM105.151 35.1813L120.102 20.2298V26.1569C120.102 27.1493 120.495 28.1004 121.196 28.8012C121.897 29.5021 122.848 29.895 123.841 29.895H129.769L114.817 44.8465H105.151V35.1813Z" fill="#FFEBD1"/>
</svg>
